<svg width="512" height="512" viewBox="0 0 512 512" fill="none" xmlns="http://www.w3.org/2000/svg">
<g clip-path="url(#clip0_6944_225)">
<path fill-rule="evenodd" clip-rule="evenodd" d="M256 512C114.841 512 0 397.159 0 256C0 114.841 114.841 0 256 0C397.159 0 512 114.841 512 256C512 397.159 397.159 512 256 512ZM388.758 345.931C391.914 345.931 394.483 343.363 394.483 340.206V179.489L264.233 282.921C261.823 284.836 258.91 285.793 255.999 285.793C253.088 285.793 250.176 284.835 247.765 282.921L117.516 179.489V340.206C117.516 343.363 120.085 345.931 123.241 345.931H388.758ZM368.798 166.069L256 255.644L143.201 166.069H368.798ZM420.966 171.794V340.208C420.966 357.967 406.517 372.416 388.758 372.416H123.241C105.481 372.416 91.034 357.967 91.034 340.208V171.794C91.034 154.035 105.482 139.587 123.241 139.587H388.758C406.517 139.586 420.966 154.035 420.966 171.794Z" fill="url(#paint0_linear_6944_225)"/>
</g>
<defs>
<linearGradient id="paint0_linear_6944_225" x1="44.028" y1="283.307" x2="523.402" y2="294.054" gradientUnits="userSpaceOnUse">
<stop stop-color="#FDE73E"/>
<stop offset="1" stop-color="#FBAE3A"/>
</linearGradient>
<clipPath id="clip0_6944_225">
<rect width="512" height="512" fill="white"/>
</clipPath>
</defs>
</svg>
