<svg width="512" height="512" viewBox="0 0 512 512" fill="none" xmlns="http://www.w3.org/2000/svg">
<g clip-path="url(#clip0_6944_215)">
<path d="M233.971 226.727C213.559 216.622 224.978 196.074 253.946 196.074C293.929 196.074 280.894 228.479 305.651 228.479C326.266 228.479 333.138 202.272 307.639 182.533C279.984 161.245 215.748 162.963 193.854 191.156C188.241 198.445 185.161 207.366 185.082 216.565C185.003 225.764 187.929 234.737 193.416 242.121C216.995 271.19 268.397 264.588 286.384 281.194C293.121 287.493 294.334 300.63 281.837 308.984C269.34 317.337 247.445 317.034 237.34 312.352C215.277 301.977 222.182 276.512 200.287 276.512C171.319 276.512 177.281 316.933 210.864 334.752C234.443 347.081 273.348 347.013 296.995 337.279C318.384 328.588 332.094 311.914 332.127 289.683C332.127 235.788 261.66 240.47 233.971 226.727Z" fill="url(#paint0_linear_6944_215)"/>
<path d="M256 0C205.368 0 155.873 15.0141 113.774 43.1438C71.6751 71.2734 38.863 111.255 19.487 158.033C0.11092 204.811 -4.95873 256.284 4.91908 305.943C14.7969 355.602 39.1785 401.217 74.9808 437.019C110.783 472.822 156.398 497.203 206.057 507.081C255.716 516.959 307.189 511.889 353.967 492.513C400.745 473.137 440.727 440.325 468.856 398.226C496.986 356.127 512 306.632 512 256C512 188.105 485.029 122.99 437.019 74.9807C389.01 26.9714 323.896 0 256 0ZM280.792 381.777C190.754 398.114 113.347 319.663 131.369 231.848C124.727 220.632 121.236 207.831 121.263 194.796C121.263 136.556 186.409 102.265 235.352 132.615C325.491 117.356 402.223 196.918 382.72 284.564C414.821 348.295 344.455 415.427 280.792 381.777Z" fill="url(#paint1_linear_6944_215)"/>
</g>
<defs>
<linearGradient id="paint0_linear_6944_215" x1="194.646" y1="265.599" x2="335.496" y2="268.294" gradientUnits="userSpaceOnUse">
<stop stop-color="#FDE73E"/>
<stop offset="1" stop-color="#FBAE3A"/>
</linearGradient>
<linearGradient id="paint1_linear_6944_215" x1="44.028" y1="283.307" x2="523.402" y2="294.054" gradientUnits="userSpaceOnUse">
<stop stop-color="#FDE73E"/>
<stop offset="1" stop-color="#FBAE3A"/>
</linearGradient>
<clipPath id="clip0_6944_215">
<rect width="512" height="512" fill="white"/>
</clipPath>
</defs>
</svg>
